<svg version="1.2" xmlns="http://www.w3.org/2000/svg" viewBox="0 0 1500 1000" width="1500" height="1000">
	<title>5641800-ai</title>
	<defs>
		<linearGradient id="g1" x2="1" gradientUnits="userSpaceOnUse" gradientTransform="matrix(1220.179,0,0,193.549,139.91,483.115)">
			<stop offset="0" stop-color="#454545"/>
			<stop offset=".5" stop-color="#666666"/>
			<stop offset="1" stop-color="#4d4d4d"/>
		</linearGradient>
		<linearGradient id="g2" x2="1" gradientUnits="userSpaceOnUse" gradientTransform="matrix(1220.179,0,0,193.549,139.911,483.115)">
			<stop offset="0" stop-color="#cccccc"/>
			<stop offset=".5" stop-color="#ffffff"/>
			<stop offset="1" stop-color="#cccccc"/>
		</linearGradient>
	</defs>
	<style>
		.s0 { fill: url(#g1) } 
		.s1 { fill: url(#g2) } 
		.s2 { fill: #000000 } 
		.s3 { fill: #ffffff } 
	</style>
	<g id="OBJECTS">
		<g id="&lt;Group&gt;">
			<path id="&lt;Path&gt;" class="s0" d="m981.7 676.7c-69.2 0-115.1-40.3-143.7-70.6-29.5-31.3-58.3-46.5-88-46.5-28.7 0-56.1 14.6-88.8 47.3-30 30-77.4 69.8-142.9 69.8-63.8 0-109.8-37.2-142.7-69.5-34.4-33.8-60.2-47.6-89.1-47.6-33.9 0-64.9 15.7-85.1 43l-61.5-45.4c34.3-46.4 89.1-74.1 146.6-74.1 63.8 0 109.8 37.2 142.7 69.5 33.9 33.4 60.6 47.6 89.1 47.6 28.7 0 56.1-14.6 88.8-47.3 29.9-30 77.3-69.8 142.9-69.8 51.2 0 99.6 23.8 143.7 70.6 30.7 32.6 57.1 46.5 88 46.5 28.7 0 56.1-14.6 88.9-47.3 29.9-30 77.3-69.8 142.9-69.8 57.5 0 112.3 27.7 146.6 74.1l-61.5 45.4c-20.2-27.3-51.2-43-85.1-43-28.7 0-56.1 14.6-88.9 47.3-29.9 30-77.3 69.8-142.9 69.8z"/>
			<path id="&lt;Compound Path&gt;" fill-rule="evenodd" class="s1" d="m1360.1 557.2l-61.5 45.4c-20.2-27.3-51.2-43-85.1-43-28.7 0-56.1 14.6-88.9 47.3-29.9 30-77.3 69.8-142.9 69.8-69.2 0-115.1-40.3-143.7-70.6-29.5-31.3-58.3-46.5-88-46.5-28.7 0-56.1 14.6-88.8 47.3-30 30-77.4 69.8-142.9 69.8-63.8 0-109.8-37.2-142.7-69.5-34.4-33.8-60.2-47.6-89.1-47.6-33.9 0-64.9 15.7-85.1 43l-61.5-45.4c34.3-46.4 89.1-74.1 146.6-74.1 63.8 0 109.8 37.2 142.7 69.5 33.9 33.4 60.6 47.6 89.1 47.6 28.7 0 56.1-14.6 88.8-47.3 29.9-30 77.3-69.8 142.9-69.8 51.2 0 99.6 23.8 143.7 70.6 30.7 32.6 57.1 46.5 88 46.5 28.7 0 56.1-14.6 88.9-47.3 29.9-30 77.3-69.8 142.9-69.8 57.5 0 112.3 27.7 146.6 74.1zm-288.2-3c-33.1 33.1-60.9 47.9-90.2 47.9-31.5 0-58.3-14.1-89.4-47.1-43.7-46.4-91.6-70-142.3-70-64.9 0-111.9 39.5-141.5 69.2-33.2 33.1-61 47.9-90.2 47.9-29.1 0-56.1-14.4-90.4-48.1-32.7-32.1-78.3-69-141.4-69-56.3 0-110 26.8-143.9 71.8l58.4 43.1c20.6-26.9 51.7-42.2 85.5-42.2 29.5 0 55.6 13.9 90.4 48.1 32.7 32.1 78.3 69 141.4 69 64.8 0 111.8-39.5 141.5-69.2 33.1-33.2 61-47.9 90.2-47.9 30.3 0 59.6 15.4 89.4 47.1 28.3 30 73.9 70 142.3 70 64.9 0 111.9-39.5 141.6-69.2 33.1-33.2 60.9-47.9 90.2-47.9 33.8 0 64.9 15.3 85.5 42.2l58.4-43.1c-33.9-45-87.6-71.8-143.9-71.8-64.9 0-111.9 39.5-141.6 69.2z"/>
			<g id="&lt;Group&gt;">
				<g id="&lt;Group&gt;" style="opacity: .1;mix-blend-mode: multiply">
					<path id="&lt;Path&gt;" class="s2" d="m363.7 534.4c-0.1-1.1-1.1-1.8-2.1-1.7-1.1 0.1-1.8 1.1-1.7 2.1l1.2 10.7c-24.3-15.9-48.8-23.7-74.6-23.7-27.1 0-53.6 7.5-76.6 21.8-0.9 0.5-1.2 1.7-0.6 2.6 0.5 0.9 1.7 1.2 2.6 0.6 22.4-13.8 48.2-21.1 74.6-21.1 25.1 0 48.8 7.5 72.6 23.1l-11 2.1c-1 0.3-1.7 1.3-1.5 2.3 0.2 0.9 1 1.5 1.9 1.5q0.2 0 0.4 0l15-3c1-0.2 1.7-1.1 1.5-2.1z"/>
				</g>
				<g id="&lt;Group&gt;">
					<path id="&lt;Path&gt;" class="s3" d="m363.7 532c-0.1-1.1-1.1-1.8-2.1-1.7-1.1 0.1-1.8 1.1-1.7 2.1l1.2 10.7c-24.3-15.9-48.8-23.7-74.6-23.7-27.1 0-53.6 7.5-76.6 21.8-0.9 0.5-1.2 1.7-0.6 2.6 0.5 0.9 1.7 1.2 2.6 0.6 22.4-13.8 48.2-21.1 74.6-21.1 25.1 0 48.8 7.5 72.6 23.1l-11 2.1c-1 0.3-1.7 1.3-1.5 2.3 0.2 0.9 1 1.5 1.9 1.5q0.2 0 0.4 0l15-3c1-0.2 1.7-1.1 1.5-2.1z"/>
				</g>
			</g>
			<g id="&lt;Group&gt;">
				<g id="&lt;Group&gt;" style="opacity: .1;mix-blend-mode: multiply">
					<path id="&lt;Path&gt;" class="s2" d="m597.4 611.8l-15.1-2.6c-1-0.2-2 0.5-2.2 1.6-0.2 1 0.5 2 1.6 2.2l10.7 1.8c-24.4 16.2-48.7 24.1-74.1 24.1-25.7 0-50.3-8.1-75.1-24.9-0.9-0.6-2.1-0.4-2.7 0.5-0.6 0.9-0.3 2.1 0.5 2.7 25.5 17.2 50.8 25.5 77.3 25.5 26.3 0 51.4-8.1 76.5-24.9l-0.9 11c-0.1 1 0.6 2 1.7 2q0.1 0 0.2 0c0.9 0 1.8-0.7 1.9-1.7l1.3-15.3c0.1-1-0.6-1.8-1.6-2z"/>
				</g>
				<g id="&lt;Group&gt;">
					<path id="&lt;Path&gt;" class="s3" d="m597.4 609.4l-15.1-2.6c-1-0.2-2 0.5-2.2 1.6-0.2 1 0.5 2 1.6 2.2l10.7 1.8c-24.4 16.2-48.7 24.1-74.1 24.1-25.7 0-50.3-8.1-75.1-24.9-0.9-0.6-2.1-0.4-2.7 0.5-0.6 0.9-0.3 2.1 0.5 2.7 25.5 17.2 50.8 25.5 77.3 25.5 26.3 0 51.4-8.1 76.5-24.9l-0.9 11c-0.1 1 0.6 2 1.7 2q0.1 0 0.2 0c0.9 0 1.8-0.7 1.9-1.7l1.3-15.3c0.1-1-0.6-1.8-1.6-2z"/>
				</g>
			</g>
			<g id="&lt;Group&gt;">
				<g id="&lt;Group&gt;" style="opacity: .1;mix-blend-mode: multiply">
					<path id="&lt;Path&gt;" class="s2" d="m827.7 534.4c-0.1-1.1-1.1-1.8-2.1-1.7-1.1 0.1-1.8 1.1-1.7 2.1l1.2 10.3c-24-15.4-49.3-23.3-75.1-23.3-26.6 0-52.1 8.5-77.9 26-0.9 0.6-1.1 1.7-0.5 2.6 0.3 0.6 0.9 0.9 1.5 0.9q0.6 0 1.1-0.4c25.2-17 50-25.2 75.8-25.2 25.2 0 50 7.7 73.5 23l-11.3 2.2c-1.1 0.3-1.7 1.3-1.5 2.3 0.1 0.9 0.9 1.5 1.8 1.5q0.2 0 0.4 0l15-3c1-0.2 1.7-1.1 1.6-2.1z"/>
				</g>
				<g id="&lt;Group&gt;">
					<path id="&lt;Path&gt;" class="s3" d="m827.7 532c-0.1-1.1-1.1-1.8-2.1-1.7-1.1 0.1-1.8 1.1-1.7 2.1l1.2 10.3c-24-15.4-49.3-23.3-75.1-23.3-26.6 0-52.1 8.5-77.9 26-0.9 0.6-1.1 1.7-0.5 2.6 0.3 0.6 0.9 0.9 1.5 0.9q0.6 0 1.1-0.4c25.2-17 50-25.2 75.8-25.2 25.2 0 50 7.7 73.5 23l-11.3 2.2c-1.1 0.3-1.7 1.3-1.5 2.3 0.1 0.9 0.9 1.5 1.8 1.5q0.2 0 0.4 0l15-3c1-0.2 1.7-1.1 1.6-2.1z"/>
				</g>
			</g>
			<g id="&lt;Group&gt;">
				<g id="&lt;Group&gt;" style="opacity: .1;mix-blend-mode: multiply">
					<path id="&lt;Path&gt;" class="s2" d="m1063.2 609.5l-15.1-2.6c-1-0.1-2 0.5-2.2 1.6-0.1 1 0.6 2 1.6 2.2l11.6 2q0 0-0.1 0c-25.4 17.6-50.7 26.2-77.3 26.2-25.7 0-49.4-7.1-72.3-21.8-0.9-0.6-2.1-0.3-2.6 0.5-0.6 0.9-0.3 2.1 0.6 2.7 23.5 15.1 47.8 22.4 74.3 22.4 27.2 0 53-8.6 78.9-26.4l-0.9 10.2c-0.1 1.1 0.7 2 1.7 2.1q0.1 0 0.2 0c1 0 1.8-0.8 1.9-1.8l1.3-15.2c0.1-1-0.6-1.9-1.6-2.1z"/>
				</g>
				<g id="&lt;Group&gt;">
					<path id="&lt;Path&gt;" class="s3" d="m1063.2 607.1l-15.1-2.6c-1-0.1-2 0.5-2.2 1.6-0.1 1 0.6 2 1.6 2.2l11.6 2q0 0-0.1 0c-25.4 17.6-50.7 26.2-77.3 26.2-25.7 0-49.4-7.1-72.3-21.8-0.9-0.6-2.1-0.3-2.6 0.5-0.6 0.9-0.3 2.1 0.6 2.7 23.5 15.1 47.8 22.4 74.3 22.4 27.2 0 53-8.6 78.9-26.4l-0.9 10.2c-0.1 1.1 0.7 2 1.7 2.1q0.1 0 0.2 0c1 0 1.8-0.8 1.9-1.8l1.3-15.2c0.1-1-0.6-1.9-1.6-2.1z"/>
				</g>
			</g>
			<g id="&lt;Group&gt;">
				<g id="&lt;Group&gt;" style="opacity: .1;mix-blend-mode: multiply">
					<path id="&lt;Path&gt;" class="s2" d="m1293.1 532.7c-0.1-1.1-1.1-1.8-2.1-1.7-1.1 0.1-1.8 1.1-1.7 2.1l1.2 10.8q0-0.1-0.1-0.1c-23-14.4-49.6-22-76.9-22-26.3 0-51.4 8.3-76.9 25.3-0.9 0.5-1.1 1.7-0.5 2.6 0.3 0.6 1 0.9 1.6 0.9q0.5 0 1-0.4c24.8-16.5 49.3-24.5 74.8-24.5 26.5 0 52.4 7.3 74.9 21.3q0 0 0.1 0.1l-11 2.1c-1 0.3-1.7 1.3-1.5 2.3 0.2 0.9 1 1.5 1.9 1.5q0.2 0 0.4 0l15-3c1-0.2 1.7-1.1 1.5-2.1z"/>
				</g>
				<g id="&lt;Group&gt;">
					<path id="&lt;Path&gt;" class="s3" d="m1293.1 530.3c-0.1-1.1-1.1-1.8-2.1-1.7-1.1 0.1-1.8 1.1-1.7 2.1l1.2 10.8q0-0.1-0.1-0.1c-23-14.4-49.6-22-76.9-22-26.3 0-51.4 8.3-76.9 25.3-0.9 0.5-1.1 1.7-0.5 2.6 0.3 0.6 1 0.9 1.6 0.9q0.5 0 1-0.4c24.8-16.5 49.3-24.5 74.8-24.5 26.5 0 52.4 7.3 74.9 21.3q0 0 0.1 0.1l-11 2.1c-1 0.3-1.7 1.3-1.5 2.3 0.2 0.9 1 1.5 1.9 1.5q0.2 0 0.4 0l15-3c1-0.2 1.7-1.1 1.5-2.1z"/>
				</g>
			</g>
		</g>
	</g>
</svg>